<mxfile host="app.diagrams.net" modified="2024-06-15T22:54:00.061Z" agent="Mozilla/5.0 (Windows NT 10.0; Win64; x64) AppleWebKit/537.36 (KHTML, like Gecko) Chrome/125.0.0.0 Safari/537.36" etag="a5Q8aPgUFZRRZWFgRlp8" version="24.5.3" type="device">
  <diagram name="Page-1" id="6VUBNLXSA-yOjyCfXJ-_">
    <mxGraphModel dx="472" dy="745" grid="1" gridSize="10" guides="1" tooltips="1" connect="1" arrows="1" fold="1" page="1" pageScale="1" pageWidth="850" pageHeight="1100" math="0" shadow="0">
      <root>
        <mxCell id="0" />
        <mxCell id="1" parent="0" />
        <mxCell id="WSG5uCDq1whdmllbK6eV-7" style="edgeStyle=orthogonalEdgeStyle;rounded=0;orthogonalLoop=1;jettySize=auto;html=1;" edge="1" parent="1" source="WSG5uCDq1whdmllbK6eV-1" target="WSG5uCDq1whdmllbK6eV-6">
          <mxGeometry relative="1" as="geometry" />
        </mxCell>
        <mxCell id="WSG5uCDq1whdmllbK6eV-1" value="&lt;font style=&quot;font-size: 20px;&quot;&gt;Project 1&lt;/font&gt;" style="rounded=1;whiteSpace=wrap;html=1;arcSize=50;" vertex="1" parent="1">
          <mxGeometry x="365" y="100" width="120" height="50" as="geometry" />
        </mxCell>
        <mxCell id="WSG5uCDq1whdmllbK6eV-12" style="edgeStyle=orthogonalEdgeStyle;rounded=0;orthogonalLoop=1;jettySize=auto;html=1;" edge="1" parent="1" source="WSG5uCDq1whdmllbK6eV-6" target="WSG5uCDq1whdmllbK6eV-10">
          <mxGeometry relative="1" as="geometry" />
        </mxCell>
        <mxCell id="WSG5uCDq1whdmllbK6eV-6" value="&lt;font style=&quot;font-size: 15px;&quot;&gt;Open file in WRITE mode&lt;/font&gt;" style="whiteSpace=wrap;html=1;" vertex="1" parent="1">
          <mxGeometry x="365" y="200" width="120" height="60" as="geometry" />
        </mxCell>
        <mxCell id="WSG5uCDq1whdmllbK6eV-24" style="edgeStyle=orthogonalEdgeStyle;rounded=0;orthogonalLoop=1;jettySize=auto;html=1;" edge="1" parent="1" source="WSG5uCDq1whdmllbK6eV-10" target="WSG5uCDq1whdmllbK6eV-11">
          <mxGeometry relative="1" as="geometry" />
        </mxCell>
        <mxCell id="WSG5uCDq1whdmllbK6eV-10" value="&lt;font style=&quot;font-size: 11px;&quot;&gt;Prompt Employee ID&lt;/font&gt;" style="shape=parallelogram;perimeter=parallelogramPerimeter;whiteSpace=wrap;html=1;fixedSize=1;fontSize=11;" vertex="1" parent="1">
          <mxGeometry x="353" y="290" width="145" height="20" as="geometry" />
        </mxCell>
        <mxCell id="WSG5uCDq1whdmllbK6eV-15" style="edgeStyle=orthogonalEdgeStyle;rounded=0;orthogonalLoop=1;jettySize=auto;html=1;" edge="1" parent="1" source="WSG5uCDq1whdmllbK6eV-11" target="WSG5uCDq1whdmllbK6eV-14">
          <mxGeometry relative="1" as="geometry" />
        </mxCell>
        <mxCell id="WSG5uCDq1whdmllbK6eV-11" value="&lt;font style=&quot;font-size: 11px;&quot;&gt;Accept Employee ID&lt;/font&gt;" style="shape=parallelogram;perimeter=parallelogramPerimeter;whiteSpace=wrap;html=1;fixedSize=1;fontSize=11;" vertex="1" parent="1">
          <mxGeometry x="354" y="330" width="142" height="20" as="geometry" />
        </mxCell>
        <mxCell id="WSG5uCDq1whdmllbK6eV-17" style="edgeStyle=orthogonalEdgeStyle;rounded=0;orthogonalLoop=1;jettySize=auto;html=1;" edge="1" parent="1" source="WSG5uCDq1whdmllbK6eV-14" target="WSG5uCDq1whdmllbK6eV-16">
          <mxGeometry relative="1" as="geometry" />
        </mxCell>
        <mxCell id="WSG5uCDq1whdmllbK6eV-14" value="&lt;font style=&quot;font-size: 11px;&quot;&gt;Prompt Department Code&lt;/font&gt;" style="shape=parallelogram;perimeter=parallelogramPerimeter;whiteSpace=wrap;html=1;fixedSize=1;fontSize=11;" vertex="1" parent="1">
          <mxGeometry x="348" y="370" width="154.5" height="20" as="geometry" />
        </mxCell>
        <mxCell id="WSG5uCDq1whdmllbK6eV-26" style="edgeStyle=orthogonalEdgeStyle;rounded=0;orthogonalLoop=1;jettySize=auto;html=1;" edge="1" parent="1" source="WSG5uCDq1whdmllbK6eV-16" target="WSG5uCDq1whdmllbK6eV-18">
          <mxGeometry relative="1" as="geometry" />
        </mxCell>
        <mxCell id="WSG5uCDq1whdmllbK6eV-16" value="Accept Department Code" style="shape=parallelogram;perimeter=parallelogramPerimeter;whiteSpace=wrap;html=1;fixedSize=1;fontSize=11;" vertex="1" parent="1">
          <mxGeometry x="343" y="410" width="165" height="20" as="geometry" />
        </mxCell>
        <mxCell id="WSG5uCDq1whdmllbK6eV-25" style="edgeStyle=orthogonalEdgeStyle;rounded=0;orthogonalLoop=1;jettySize=auto;html=1;" edge="1" parent="1" source="WSG5uCDq1whdmllbK6eV-18" target="WSG5uCDq1whdmllbK6eV-19">
          <mxGeometry relative="1" as="geometry" />
        </mxCell>
        <mxCell id="WSG5uCDq1whdmllbK6eV-18" value="Prompt First Name" style="shape=parallelogram;perimeter=parallelogramPerimeter;whiteSpace=wrap;html=1;fixedSize=1;fontSize=11;" vertex="1" parent="1">
          <mxGeometry x="358" y="450" width="135" height="20" as="geometry" />
        </mxCell>
        <mxCell id="WSG5uCDq1whdmllbK6eV-28" style="edgeStyle=orthogonalEdgeStyle;rounded=0;orthogonalLoop=1;jettySize=auto;html=1;entryX=0.5;entryY=0;entryDx=0;entryDy=0;" edge="1" parent="1" source="WSG5uCDq1whdmllbK6eV-19" target="WSG5uCDq1whdmllbK6eV-20">
          <mxGeometry relative="1" as="geometry" />
        </mxCell>
        <mxCell id="WSG5uCDq1whdmllbK6eV-19" value="Accept First Name" style="shape=parallelogram;perimeter=parallelogramPerimeter;whiteSpace=wrap;html=1;fixedSize=1;fontSize=11;" vertex="1" parent="1">
          <mxGeometry x="363" y="490" width="125" height="20" as="geometry" />
        </mxCell>
        <mxCell id="WSG5uCDq1whdmllbK6eV-29" style="edgeStyle=orthogonalEdgeStyle;rounded=0;orthogonalLoop=1;jettySize=auto;html=1;" edge="1" parent="1" source="WSG5uCDq1whdmllbK6eV-20" target="WSG5uCDq1whdmllbK6eV-21">
          <mxGeometry relative="1" as="geometry" />
        </mxCell>
        <mxCell id="WSG5uCDq1whdmllbK6eV-20" value="Prompt Last Name" style="shape=parallelogram;perimeter=parallelogramPerimeter;whiteSpace=wrap;html=1;fixedSize=1;fontSize=11;" vertex="1" parent="1">
          <mxGeometry x="362" y="530" width="127" height="20" as="geometry" />
        </mxCell>
        <mxCell id="WSG5uCDq1whdmllbK6eV-30" style="edgeStyle=orthogonalEdgeStyle;rounded=0;orthogonalLoop=1;jettySize=auto;html=1;" edge="1" parent="1" source="WSG5uCDq1whdmllbK6eV-21" target="WSG5uCDq1whdmllbK6eV-22">
          <mxGeometry relative="1" as="geometry" />
        </mxCell>
        <mxCell id="WSG5uCDq1whdmllbK6eV-21" value="Accept Last Name" style="shape=parallelogram;perimeter=parallelogramPerimeter;whiteSpace=wrap;html=1;fixedSize=1;fontSize=11;" vertex="1" parent="1">
          <mxGeometry x="362" y="570" width="127" height="20" as="geometry" />
        </mxCell>
        <mxCell id="WSG5uCDq1whdmllbK6eV-31" style="edgeStyle=orthogonalEdgeStyle;rounded=0;orthogonalLoop=1;jettySize=auto;html=1;" edge="1" parent="1" source="WSG5uCDq1whdmllbK6eV-22" target="WSG5uCDq1whdmllbK6eV-23">
          <mxGeometry relative="1" as="geometry" />
        </mxCell>
        <mxCell id="WSG5uCDq1whdmllbK6eV-22" value="Prompt Years of Service" style="shape=parallelogram;perimeter=parallelogramPerimeter;whiteSpace=wrap;html=1;fixedSize=1;fontSize=11;" vertex="1" parent="1">
          <mxGeometry x="348" y="610" width="155" height="20" as="geometry" />
        </mxCell>
        <mxCell id="WSG5uCDq1whdmllbK6eV-34" style="edgeStyle=orthogonalEdgeStyle;rounded=0;orthogonalLoop=1;jettySize=auto;html=1;" edge="1" parent="1" source="WSG5uCDq1whdmllbK6eV-23" target="WSG5uCDq1whdmllbK6eV-33">
          <mxGeometry relative="1" as="geometry" />
        </mxCell>
        <mxCell id="WSG5uCDq1whdmllbK6eV-23" value="Accept Years of Service" style="shape=parallelogram;perimeter=parallelogramPerimeter;whiteSpace=wrap;html=1;fixedSize=1;fontSize=11;" vertex="1" parent="1">
          <mxGeometry x="348" y="650" width="155" height="20" as="geometry" />
        </mxCell>
        <mxCell id="WSG5uCDq1whdmllbK6eV-36" value="" style="edgeStyle=orthogonalEdgeStyle;rounded=0;orthogonalLoop=1;jettySize=auto;html=1;" edge="1" parent="1" source="WSG5uCDq1whdmllbK6eV-33" target="WSG5uCDq1whdmllbK6eV-35">
          <mxGeometry relative="1" as="geometry" />
        </mxCell>
        <mxCell id="WSG5uCDq1whdmllbK6eV-33" value="Write record to file" style="whiteSpace=wrap;html=1;fontSize=11;" vertex="1" parent="1">
          <mxGeometry x="368" y="690" width="115" height="30" as="geometry" />
        </mxCell>
        <mxCell id="WSG5uCDq1whdmllbK6eV-38" style="edgeStyle=orthogonalEdgeStyle;rounded=0;orthogonalLoop=1;jettySize=auto;html=1;" edge="1" parent="1" source="WSG5uCDq1whdmllbK6eV-35" target="WSG5uCDq1whdmllbK6eV-37">
          <mxGeometry relative="1" as="geometry" />
        </mxCell>
        <mxCell id="WSG5uCDq1whdmllbK6eV-35" value="Ask user if he or she wants to continue" style="shape=parallelogram;perimeter=parallelogramPerimeter;whiteSpace=wrap;html=1;fixedSize=1;fontSize=11;" vertex="1" parent="1">
          <mxGeometry x="333" y="740" width="185" height="30" as="geometry" />
        </mxCell>
        <mxCell id="WSG5uCDq1whdmllbK6eV-40" style="edgeStyle=orthogonalEdgeStyle;rounded=0;orthogonalLoop=1;jettySize=auto;html=1;entryX=0.5;entryY=0;entryDx=0;entryDy=0;" edge="1" parent="1" source="WSG5uCDq1whdmllbK6eV-37" target="WSG5uCDq1whdmllbK6eV-39">
          <mxGeometry relative="1" as="geometry" />
        </mxCell>
        <mxCell id="WSG5uCDq1whdmllbK6eV-42" style="edgeStyle=orthogonalEdgeStyle;rounded=0;orthogonalLoop=1;jettySize=auto;html=1;entryX=1;entryY=0.5;entryDx=0;entryDy=0;" edge="1" parent="1" source="WSG5uCDq1whdmllbK6eV-37" target="WSG5uCDq1whdmllbK6eV-10">
          <mxGeometry relative="1" as="geometry">
            <Array as="points">
              <mxPoint x="540" y="830" />
              <mxPoint x="540" y="300" />
            </Array>
          </mxGeometry>
        </mxCell>
        <mxCell id="WSG5uCDq1whdmllbK6eV-37" value="User answer" style="rhombus;whiteSpace=wrap;html=1;" vertex="1" parent="1">
          <mxGeometry x="353" y="790" width="145" height="80" as="geometry" />
        </mxCell>
        <mxCell id="WSG5uCDq1whdmllbK6eV-39" value="STOP" style="rounded=1;whiteSpace=wrap;html=1;fontSize=20;arcSize=50;" vertex="1" parent="1">
          <mxGeometry x="383" y="910" width="84.5" height="50" as="geometry" />
        </mxCell>
        <mxCell id="WSG5uCDq1whdmllbK6eV-41" value="no" style="text;html=1;align=center;verticalAlign=middle;resizable=0;points=[];autosize=1;strokeColor=none;fillColor=none;fontSize=20;" vertex="1" parent="1">
          <mxGeometry x="425" y="865" width="50" height="40" as="geometry" />
        </mxCell>
        <mxCell id="WSG5uCDq1whdmllbK6eV-43" value="yes" style="text;html=1;align=center;verticalAlign=middle;resizable=0;points=[];autosize=1;strokeColor=none;fillColor=none;fontSize=20;" vertex="1" parent="1">
          <mxGeometry x="540" y="790" width="50" height="40" as="geometry" />
        </mxCell>
      </root>
    </mxGraphModel>
  </diagram>
</mxfile>
